<?xml version="1.0"?><svg width="64" height="64" xmlns="http://www.w3.org/2000/svg" xmlns:xlink="http://www.w3.org/1999/xlink">
 <title>Refresh</title>
 <defs>
  <linearGradient id="linearGradient4339">
   <stop stop-color="#b6f3b1" id="stop4341" offset="0"/>
   <stop stop-color="#27af1e" id="stop4343" offset="1"/>
  </linearGradient>
  <linearGradient id="linearGradient2141">
   <stop stop-color="#2bb135" offset="0" id="stop2143"/>
   <stop stop-color="#0d5f11" offset="1" id="stop2145"/>
  </linearGradient>
  <linearGradient id="linearGradient2127">
   <stop stop-color="#1d6921" id="stop2129" offset="0"/>
   <stop stop-color="#124917" id="stop2131" offset="1"/>
  </linearGradient>
  <linearGradient id="linearGradient3702">
   <stop stop-color="#ced1f2" id="stop3704" offset="0"/>
   <stop stop-color="#1d42c9" stop-opacity="0" id="stop3706" offset="1"/>
  </linearGradient>
  <linearGradient id="linearGradient3630">
   <stop stop-color="#d2d0f3" offset="0" id="stop3632"/>
   <stop stop-color="#1c3db8" offset="1" id="stop3634"/>
  </linearGradient>
  <linearGradient id="linearGradient3598">
   <stop stop-color="#8280e2" id="stop3600" offset="0"/>
   <stop stop-color="#b6a7ea" id="stop3602" offset="1"/>
  </linearGradient>
  <linearGradient id="linearGradient2856">
   <stop stop-color="#3c44dc" id="stop2858" offset="0"/>
   <stop stop-color="#060e30" id="stop2860" offset="1"/>
  </linearGradient>
  <linearGradient id="linearGradient1378">
   <stop stop-color="#b0ffa5" id="stop1380" offset="0"/>
   <stop stop-color="#26bc14" stop-opacity="0.447059" id="stop1382" offset="1"/>
  </linearGradient>
  <linearGradient id="linearGradient1365">
   <stop stop-color="#24f00a" offset="0" id="stop1367"/>
   <stop stop-color="#0b6400" offset="1" id="stop1370"/>
  </linearGradient>
  <linearGradient id="linearGradient1352">
   <stop stop-color="#179807" id="stop1354" offset="0"/>
   <stop stop-color="#0b5102" id="stop1356" offset="1"/>
  </linearGradient>
  <linearGradient id="linearGradient1367">
   <stop stop-color="#f67e36" offset="0" id="stop1369"/>
   <stop stop-color="#602604" offset="1" id="stop1371"/>
  </linearGradient>
  <linearGradient id="linearGradient1347">
   <stop stop-color="#f0da27" id="stop1349" offset="0"/>
   <stop stop-color="#bf4d09" id="stop1351" offset="1"/>
  </linearGradient>
  <linearGradient id="linearGradient1315">
   <stop stop-color="#97ff82" id="stop1317" offset="0"/>
   <stop stop-color="#ceff24" stop-opacity="0" id="stop1319" offset="1"/>
  </linearGradient>
  <linearGradient id="linearGradient2122">
   <stop stop-color="#2edc32" id="stop2124" offset="0"/>
   <stop stop-color="#11661d" id="stop2126" offset="1"/>
  </linearGradient>
  <linearGradient id="linearGradient1364">
   <stop stop-color="#236b0d" id="stop1366" offset="0"/>
   <stop stop-color="#081b04" id="stop1368" offset="1"/>
  </linearGradient>
  <linearGradient y2="47.451466" x2="84.910713" y1="32.362179" x1="74.910713" gradientUnits="userSpaceOnUse" id="linearGradient1341" xlink:href="#linearGradient1364"/>
  <linearGradient y2="43.714283" x2="76.875" y1="34.428566" x1="73.839287" gradientUnits="userSpaceOnUse" id="linearGradient1343" xlink:href="#linearGradient2122"/>
  <linearGradient y2="47.375" x2="85" y1="35.589287" x1="72.946426" gradientUnits="userSpaceOnUse" id="linearGradient1345" xlink:href="#linearGradient1315"/>
  <radialGradient gradientTransform="matrix(1.211118e-16,1.330643,-1.347411,2.027373e-5,44.09678,-13.39507)" gradientUnits="userSpaceOnUse" r="27.5" fy="14.921703" fx="21.959658" cy="14.921703" cx="21.959658" id="radialGradient1353" xlink:href="#linearGradient1347"/>
  <radialGradient r="27.5" fy="14.921703" fx="21.959658" cy="14.921703" cx="21.959658" gradientTransform="matrix(1.211118e-16,1.330643,-1.347411,2.027373e-5,44.09678,-13.39507)" gradientUnits="userSpaceOnUse" id="radialGradient1357" xlink:href="#linearGradient1367"/>
  <radialGradient r="27.5" fy="14.921703" fx="21.959658" cy="14.921703" cx="21.959658" gradientTransform="matrix(1.211118e-16,1.330643,-1.347411,2.027373e-5,44.09678,-13.39507)" gradientUnits="userSpaceOnUse" id="radialGradient1375" xlink:href="#linearGradient1367"/>
  <radialGradient r="27.5" fy="14.921703" fx="21.959658" cy="14.921703" cx="21.959658" gradientTransform="matrix(1.211118e-16,1.330643,-1.347411,2.027373e-5,44.09678,-13.39507)" gradientUnits="userSpaceOnUse" id="radialGradient1381" xlink:href="#linearGradient1367"/>
  <radialGradient r="27.5" fy="14.921703" fx="21.959658" cy="14.921703" cx="21.959658" gradientTransform="matrix(1.211118e-16,1.330643,-1.347411,2.027373e-5,44.09678,-13.39507)" gradientUnits="userSpaceOnUse" id="radialGradient1383" xlink:href="#linearGradient1347"/>
  <linearGradient gradientUnits="userSpaceOnUse" y2="48.9771" x2="40.305344" y1="13.745695" x1="20.152672" id="linearGradient1358" xlink:href="#linearGradient1352"/>
  <linearGradient y2="48.9771" x2="40.305344" y1="13.745695" x1="20.152672" gradientUnits="userSpaceOnUse" id="linearGradient1362" xlink:href="#linearGradient1365"/>
  <linearGradient y2="48.9771" x2="40.305344" y1="13.745695" x1="20.152672" gradientUnits="userSpaceOnUse" id="linearGradient1374" xlink:href="#linearGradient1365"/>
  <linearGradient gradientUnits="userSpaceOnUse" y2="46.167938" x2="42.748093" y1="17.587786" x1="21.251909" id="linearGradient1384" xlink:href="#linearGradient1378"/>
  <linearGradient y2="48.9771" x2="40.305344" y1="13.745695" x1="20.152672" gradientUnits="userSpaceOnUse" id="linearGradient1391" xlink:href="#linearGradient1352"/>
  <linearGradient y2="48.9771" x2="40.305344" y1="13.745695" x1="20.152672" gradientUnits="userSpaceOnUse" id="linearGradient1393" xlink:href="#linearGradient1365"/>
  <linearGradient y2="46.167938" x2="42.748093" y1="17.587786" x1="21.251909" gradientUnits="userSpaceOnUse" id="linearGradient1395" xlink:href="#linearGradient1378"/>
  <linearGradient y2="48.9771" x2="40.305344" y1="13.745695" x1="20.152672" gradientUnits="userSpaceOnUse" id="linearGradient1400" xlink:href="#linearGradient1352"/>
  <linearGradient y2="46.167938" x2="42.748093" y1="13.923663" x1="20.030535" gradientUnits="userSpaceOnUse" id="linearGradient1402" xlink:href="#linearGradient1378"/>
  <linearGradient y2="48.9771" x2="40.305344" y1="13.745695" x1="20.152672" gradientUnits="userSpaceOnUse" id="linearGradient1409" xlink:href="#linearGradient1352"/>
  <linearGradient y2="48.9771" x2="40.305344" y1="13.745695" x1="20.152672" gradientUnits="userSpaceOnUse" id="linearGradient1411" xlink:href="#linearGradient1365"/>
  <linearGradient y2="46.167938" x2="42.748093" y1="13.923663" x1="20.030535" gradientUnits="userSpaceOnUse" id="linearGradient1413" xlink:href="#linearGradient1378"/>
  <linearGradient y2="48.9771" x2="40.305344" y1="13.745695" x1="20.152672" gradientUnits="userSpaceOnUse" id="linearGradient1418" xlink:href="#linearGradient1352"/>
  <linearGradient y2="43.60305" x2="43.480919" y1="18.931297" x1="20.152672" gradientUnits="userSpaceOnUse" id="linearGradient1422" xlink:href="#linearGradient1378"/>
  <linearGradient y2="48.9771" x2="40.305344" y1="13.745695" x1="20.152672" gradientUnits="userSpaceOnUse" id="linearGradient1429" xlink:href="#linearGradient1352"/>
  <linearGradient y2="48.9771" x2="40.305344" y1="13.745695" x1="20.152672" gradientUnits="userSpaceOnUse" id="linearGradient1431" xlink:href="#linearGradient1365"/>
  <linearGradient y2="43.60305" x2="43.480919" y1="18.931297" x1="20.152672" gradientUnits="userSpaceOnUse" id="linearGradient1433" xlink:href="#linearGradient1378"/>
  <linearGradient gradientTransform="matrix(0.889325,0.000000,0.000000,0.889325,3.541600,3.541600)" y2="46.761806" x2="47.84375" y1="17.420588" x1="18.504625" gradientUnits="userSpaceOnUse" id="linearGradient1436" xlink:href="#linearGradient1378"/>
  <linearGradient gradientTransform="matrix(0.889325,0.000000,0.000000,0.889325,3.541600,3.541600)" y2="48.9771" x2="40.305344" y1="13.745695" x1="20.152672" gradientUnits="userSpaceOnUse" id="linearGradient1439" xlink:href="#linearGradient1365"/>
  <linearGradient gradientTransform="matrix(0.889325,0.000000,0.000000,0.889325,3.541600,3.541600)" y2="48.9771" x2="40.305344" y1="13.745695" x1="20.152672" gradientUnits="userSpaceOnUse" id="linearGradient1442" xlink:href="#linearGradient1352"/>
  <linearGradient y2="48.9771" x2="40.305344" y1="13.745695" x1="20.152672" gradientTransform="matrix(0.889325,0.000000,0.000000,0.889325,3.541600,3.541600)" gradientUnits="userSpaceOnUse" id="linearGradient1449" xlink:href="#linearGradient1352"/>
  <linearGradient y2="48.9771" x2="40.305344" y1="13.745695" x1="20.152672" gradientTransform="matrix(0.889325,0.000000,0.000000,0.889325,3.541600,3.541600)" gradientUnits="userSpaceOnUse" id="linearGradient1451" xlink:href="#linearGradient1365"/>
  <linearGradient y2="46.761806" x2="47.84375" y1="17.420588" x1="18.504625" gradientTransform="matrix(0.889325,0.000000,0.000000,0.889325,3.541600,3.541600)" gradientUnits="userSpaceOnUse" id="linearGradient1453" xlink:href="#linearGradient1378"/>
  <linearGradient y2="46.761806" x2="47.84375" y1="17.420588" x1="18.504625" gradientTransform="matrix(0.889325,0.000000,0.000000,0.889325,3.541593,3.541600)" gradientUnits="userSpaceOnUse" id="linearGradient1456" xlink:href="#linearGradient1378"/>
  <linearGradient y2="48.9771" x2="40.305344" y1="13.745695" x1="20.152672" gradientTransform="matrix(0.889325,0.000000,0.000000,0.889325,-50.24727,-11.63251)" gradientUnits="userSpaceOnUse" id="linearGradient1459" xlink:href="#linearGradient1365"/>
  <linearGradient y2="48.9771" x2="40.305344" y1="13.745695" x1="20.152672" gradientTransform="matrix(0.889325,0.000000,0.000000,0.889325,3.541600,3.541600)" gradientUnits="userSpaceOnUse" id="linearGradient1462" xlink:href="#linearGradient1352"/>
  <linearGradient y2="46.761806" x2="47.84375" y1="17.420588" x1="18.504625" gradientTransform="matrix(0.889325,0.000000,0.000000,0.889325,-32.54864,2.451357)" gradientUnits="userSpaceOnUse" id="linearGradient1466" xlink:href="#linearGradient1378"/>
  <linearGradient y2="46.761806" x2="47.84375" y1="17.420588" x1="18.504625" gradientTransform="matrix(0.889325,0.000000,0.000000,0.889325,-32.54864,2.451357)" gradientUnits="userSpaceOnUse" id="linearGradient1470" xlink:href="#linearGradient1365"/>
  <linearGradient y2="46.761806" x2="47.84375" y1="17.420588" x1="18.504625" gradientTransform="matrix(0.889325,0.000000,0.000000,0.889325,3.541593,3.541600)" gradientUnits="userSpaceOnUse" id="linearGradient1474" xlink:href="#linearGradient1378"/>
  <radialGradient r="17.099951" fy="0.405298" fx="-18.299662" cy="0.405298" cx="-18.299662" gradientTransform="matrix(-0.131601,1.116951,-1.057619,-0.124616,33.35703,39.58492)" gradientUnits="userSpaceOnUse" id="radialGradient3716" xlink:href="#linearGradient3630"/>
  <linearGradient gradientTransform="translate(-18.50000,10.40625)" y2="48.498569" x2="1.752624" y1="16.376432" x1="1.630487" gradientUnits="userSpaceOnUse" id="linearGradient3721" xlink:href="#linearGradient3702"/>
  <linearGradient gradientUnits="userSpaceOnUse" y2="63.253853" x2="32" y1="12.458015" x1="11.969465" id="linearGradient2133" xlink:href="#linearGradient2127"/>
  <radialGradient r="19.497228" fy="29.846951" fx="35.010025" cy="29.846951" cx="35.010025" gradientTransform="matrix(0.777550,0.674559,-0.918922,1.059236,33.18208,-27.99470)" gradientUnits="userSpaceOnUse" id="radialGradient2149" xlink:href="#linearGradient2141"/>
  <radialGradient r="19.497229" fy="29.846951" fx="35.010025" cy="29.846951" cx="35.010025" gradientTransform="matrix(0.777550,0.674559,-0.918922,1.059236,-0.349170,-28.99470)" gradientUnits="userSpaceOnUse" id="radialGradient3605" xlink:href="#linearGradient4339"/>
  <linearGradient gradientUnits="userSpaceOnUse" y2="59.48378" x2="23.254532" y1="18.689886" x1="17.75835" id="linearGradient4349" xlink:href="#linearGradient4339"/>
  <linearGradient y2="59.48378" x2="23.254532" y1="18.689886" x1="17.75835" gradientUnits="userSpaceOnUse" id="linearGradient4353" xlink:href="#linearGradient4339"/>
  <linearGradient y2="63.253853" x2="32" y1="12.458015" x1="11.969465" gradientUnits="userSpaceOnUse" id="linearGradient4361" xlink:href="#linearGradient2127"/>
  <radialGradient r="19.497228" fy="29.846951" fx="35.010025" cy="29.846951" cx="35.010025" gradientTransform="matrix(0.777550,0.674559,-0.918922,1.059236,33.18208,-27.99470)" gradientUnits="userSpaceOnUse" id="radialGradient4363" xlink:href="#linearGradient2141"/>
  <linearGradient y2="59.48378" x2="23.254532" y1="18.689886" x1="17.75835" gradientUnits="userSpaceOnUse" id="linearGradient4365" xlink:href="#linearGradient4339"/>
  <linearGradient gradientTransform="translate(6.782772,-6.746201)" y2="59.48378" x2="23.254532" y1="18.689886" x1="17.75835" gradientUnits="userSpaceOnUse" id="linearGradient1401" xlink:href="#linearGradient4339"/>
  <linearGradient gradientTransform="translate(7.434728,-6.626926)" y2="63.253853" x2="32" y1="12.458015" x1="11.969465" gradientUnits="userSpaceOnUse" id="linearGradient1405" xlink:href="#linearGradient2127"/>
  <linearGradient y2="59.48378" x2="23.254532" y1="18.689886" x1="17.75835" gradientTransform="matrix(0.000000,1.000000,-1.000000,0.000000,19.20422,6.782772)" gradientUnits="userSpaceOnUse" id="linearGradient1407" xlink:href="#linearGradient4339"/>
  <radialGradient r="19.497228" fy="29.846951" fx="35.010025" cy="29.846951" cx="35.010025" gradientTransform="matrix(0.777550,0.674559,-0.918922,1.059236,33.18208,-27.99470)" gradientUnits="userSpaceOnUse" id="radialGradient1414" xlink:href="#linearGradient2141"/>
  <linearGradient y2="63.253853" x2="32" y1="12.458015" x1="11.969465" gradientTransform="matrix(0.000000,1.000000,-1.000000,0.000000,67.72206,7.141675)" gradientUnits="userSpaceOnUse" id="linearGradient1430" xlink:href="#linearGradient2127"/>
  <linearGradient y2="63.253853" x2="32" y1="12.458015" x1="11.969465" gradientTransform="matrix(0.000000,1.000000,-1.000000,0.000000,67.72203,7.141675)" gradientUnits="userSpaceOnUse" id="linearGradient1434" xlink:href="#linearGradient2141"/>
  <radialGradient gradientUnits="userSpaceOnUse" gradientTransform="matrix(0.853114,-8.368384e-2,4.112393e-2,0.419240,3.647967,19.84280)" r="19.6875" fy="28.873655" fx="31.951624" cy="28.873655" cx="31.951624" id="radialGradient1440" xlink:href="#linearGradient4339"/>
  <linearGradient y2="63.253853" x2="32" y1="12.458015" x1="11.969465" gradientTransform="matrix(0.000000,1.000000,-1.000000,0.000000,67.72206,7.141675)" gradientUnits="userSpaceOnUse" id="linearGradient1447" xlink:href="#linearGradient2127"/>
  <linearGradient y2="63.253853" x2="32" y1="12.458015" x1="11.969465" gradientTransform="matrix(0.000000,1.000000,-1.000000,0.000000,67.72203,7.141675)" gradientUnits="userSpaceOnUse" id="linearGradient1450" xlink:href="#linearGradient2141"/>
  <radialGradient r="19.6875" fy="28.873655" fx="31.951624" cy="28.873655" cx="31.951624" gradientTransform="matrix(0.853114,-8.368384e-2,4.112393e-2,0.419240,3.647967,19.84280)" gradientUnits="userSpaceOnUse" id="radialGradient1452" xlink:href="#linearGradient4339"/>
  <linearGradient y2="63.253853" x2="32" y1="12.458015" x1="11.969465" gradientTransform="matrix(0.000000,1.000000,-1.000000,0.000000,67.72206,7.141675)" gradientUnits="userSpaceOnUse" id="linearGradient1463" xlink:href="#linearGradient2127"/>
  <linearGradient y2="63.253853" x2="32" y1="12.458015" x1="11.969465" gradientTransform="matrix(0.000000,1.000000,-1.000000,0.000000,67.72203,7.141675)" gradientUnits="userSpaceOnUse" id="linearGradient1465" xlink:href="#linearGradient2141"/>
  <radialGradient r="19.6875" fy="28.873655" fx="31.951624" cy="28.873655" cx="31.951624" gradientTransform="matrix(0.853114,-8.368384e-2,4.112393e-2,0.419240,3.647967,19.84280)" gradientUnits="userSpaceOnUse" id="radialGradient1467" xlink:href="#linearGradient4339"/>
  <linearGradient y2="63.253853" x2="32" y1="12.458015" x1="11.969465" gradientTransform="matrix(0.000000,1.000000,-1.000000,0.000000,67.72206,7.141675)" gradientUnits="userSpaceOnUse" id="linearGradient1479" xlink:href="#linearGradient2127"/>
  <linearGradient y2="0.808843" x2="-0.17653" y1="0.144618" x1="1.07095" id="linearGradient1481" xlink:href="#linearGradient2141"/>
  <radialGradient r="19.6875" fy="28.873655" fx="31.951624" cy="28.873655" cx="31.951624" gradientTransform="matrix(1.095755,-0.150730,8.197389e-2,0.595925,-5.284320,16.88350)" gradientUnits="userSpaceOnUse" id="radialGradient1483" xlink:href="#linearGradient4339"/>
  <linearGradient y2="0.686514" x2="-0.134674" y1="0.163391" x1="1.035569" id="linearGradient1485" xlink:href="#linearGradient2127"/>
  <linearGradient y2="0.808843" x2="-0.17653" y1="0.144618" x1="1.07095" id="linearGradient1487" xlink:href="#linearGradient2141"/>
  <radialGradient r="19.6875" fy="28.873655" fx="31.951624" cy="28.873655" cx="31.951624" gradientTransform="matrix(0.960698,-0.136744,7.376936e-2,0.518272,-0.732111,18.67874)" gradientUnits="userSpaceOnUse" id="radialGradient1489" xlink:href="#linearGradient4339"/>
  <linearGradient y2="0.686514" x2="-0.134674" y1="0.163391" x1="1.035569" id="linearGradient2161" xlink:href="#linearGradient2127"/>
  <linearGradient y2="0.015625" x2="1" id="svg_1">
   <stop offset="0" stop-color="#00448c"/>
   <stop offset="1" stop-opacity="0.996094" stop-color="#006789"/>
  </linearGradient>
  <linearGradient y1="0" x1="0" y2="0.015625" x2="1" id="svg_2">
   <stop offset="0" stop-color="#00448c"/>
   <stop offset="0.753906" stop-opacity="0.996094" stop-color="#006789"/>
  </linearGradient>
 </defs>
 <metadata id="metadata7">image/svg+xmlRefresh2005-11-01Jean-Victor Balinjean.victor.balin@gmail.comicon</metadata>
 <g>
  <title>Layer 1</title>
  <g id="layer1">
   <path fill="url(#svg_2)" stroke-width="0" stroke-linecap="round" stroke-linejoin="round" stroke-miterlimit="4" id="path1388" d="m19.546881,2.36354c-0.4433,0.06005 -0.784891,0.35068 -0.90625,0.78125l-5.843751,21.843751c-0.14758,0.587999 0.19824,1.208799 0.78125,1.375l21.843749,5.84375c0.433552,0.11018 0.882591,-0.02113 1.15625,-0.375c0.273651,-0.35388 0.15321,-0.76436 -0.0625,-1.15625c0,0 -2.71917,-4.69063 -4.593748,-7.9375c7.32033,-4.482031 21.444658,-5.11367 22.281248,16.96875c0.02808,0.47398 0.41935,0.959091 1,0.9375c0.999302,-0.037159 1,-1 1,-1c0,0 0,-11.59383 0,-12.5c0,-14.500001 -9.62693,-19.934731 -17.15625,-19.34375c-5.33223,0.29194 -10.456888,2.02821 -13.874998,3.21875c-1.92025,-3.32596 -4.65625,-8.0625 -4.65625,-8.0625c-0.231541,-0.38276 -0.525461,-0.6538 -0.96875,-0.59375z"/>
   <path fill="url(#svg_2)" stroke-width="0" stroke-linecap="round" stroke-linejoin="round" stroke-miterlimit="4" d="m19.732992,4.25034l-5.593749,20.90625l20.875001,5.59375c-0.344749,-0.594688 -2.50948,-4.329079 -4.250002,-7.34375c-0.347639,-0.62326 -0.14064,-1.40984 0.46875,-1.78125c3.960894,-2.42514 9.717413,-3.84893 14.812502,-1.5625c4.203449,1.886311 7.49749,6.49868 8.8125,14.34375c0,-3.36858 0,-6.724419 0,-7.25c0,-6.95607 -2.25301,-11.51326 -5.3125,-14.34375c-3.05949,-2.83049 -7.002239,-3.954679 -10.40625,-3.6875c-0.01041,0.00012 -0.020828,0.00012 -0.03125,0c-5.091591,0.27877 -10.092503,1.96941 -13.500002,3.15625c-0.604931,0.21273 -1.275459,-0.037081 -1.59375,-0.59375c-1.76981,-3.065411 -3.906521,-6.78876 -4.28125,-7.4375z" id="path1432"/>
   <path fill="url(#svg_2)" stroke-width="0" stroke-linecap="round" stroke-linejoin="round" stroke-miterlimit="4" d="m19.920492,5.84409l-5.031249,18.875l18.812501,5.03125c-0.826309,-1.425701 -2.038671,-3.554279 -3.468752,-6.03125c-0.52309,-0.909061 -0.233089,-2.06905 0.65625,-2.625c4.101473,-2.511221 10.056681,-3.994381 15.406252,-1.59375c3.430168,1.539301 6.210411,4.893612 7.96875,9.96875c0,-0.75806 0,-2.144859 0,-2.3125c0,-6.818661 -2.231579,-11.200489 -5.15625,-13.90625c-2.924671,-2.705759 -6.67083,-3.75395 -9.90625,-3.5c-0.020828,0.00033 -0.041672,0.00033 -0.0625,0c-4.979099,0.27261 -9.909962,1.93989 -13.312502,3.125c-0.89006,0.314289 -1.877411,-0.054319 -2.34375,-0.875c-1.46682,-2.5406 -2.726931,-4.70965 -3.5625,-6.15625z" id="path1436"/>
   <g transform="matrix(-1 0 0 -1 62.517 74.4997)" id="g1454">
    <path fill="url(#svg_2)" stroke-width="0" stroke-linecap="round" stroke-linejoin="round" stroke-miterlimit="4" d="m16.063881,12.8632c-0.443291,0.06005 -0.784891,0.350679 -0.90625,0.78125l-5.843751,21.843751c-0.14757,0.58799 0.19825,1.208797 0.78125,1.375l21.843751,5.84375c0.433559,0.11018 0.882599,-0.021122 1.15625,-0.375c0.273659,-0.353882 0.153217,-0.764362 -0.0625,-1.15625c0,0 -2.71916,-4.690632 -4.59375,-7.9375c7.320328,-4.482031 21.444668,-5.11367 22.28125,16.96875c0.028088,0.47398 0.419357,0.959087 1,0.9375c0.99931,-0.037163 1,-1 1,-1c0,0 0,-11.59383 0,-12.5c0,-14.500002 -9.626923,-19.934731 -17.15625,-19.343752c-5.33222,0.291941 -10.456881,2.028212 -13.875,3.21875c-1.92024,-3.32596 -4.65625,-8.062499 -4.65625,-8.062499c-0.231531,-0.38276 -0.525452,-0.6538 -0.96875,-0.59375z" id="path1456"/>
    <path fill="url(#svg_2)" stroke-width="0" stroke-linecap="round" stroke-linejoin="round" stroke-miterlimit="4" id="path1458" d="m16.25,14.75l-5.59375,20.90625l20.875,5.59375c-0.344749,-0.594688 -2.50948,-4.329079 -4.25,-7.34375c-0.347639,-0.62326 -0.14064,-1.40984 0.46875,-1.78125c3.960892,-2.42514 9.717411,-3.84893 14.8125,-1.5625c4.203449,1.886311 7.49749,6.49868 8.8125,14.34375c0,-3.36858 0,-6.724419 0,-7.25c0,-6.95607 -2.25301,-11.51326 -5.3125,-14.34375c-3.05949,-2.83049 -7.002239,-3.954679 -10.40625,-3.6875c-0.01041,0.00012 -0.020828,0.00012 -0.03125,0c-5.091591,0.27877 -10.092501,1.96941 -13.5,3.15625c-0.604931,0.21273 -1.275459,-0.037081 -1.59375,-0.59375c-1.76981,-3.065411 -3.906521,-6.78876 -4.28125,-7.4375z"/>
    <path fill="url(#svg_2)" stroke-width="0" stroke-linecap="round" stroke-linejoin="round" stroke-miterlimit="4" id="path1460" d="m16.4375,16.34375l-5.03125,18.875l18.8125,5.03125c-0.826309,-1.425701 -2.03867,-3.554279 -3.46875,-6.03125c-0.52309,-0.909061 -0.233089,-2.06905 0.65625,-2.625c4.101471,-2.511221 10.056679,-3.994381 15.40625,-1.59375c3.430168,1.539301 6.210411,4.893612 7.96875,9.96875c0,-0.75806 0,-2.144859 0,-2.3125c0,-6.818661 -2.231579,-11.200489 -5.15625,-13.90625c-2.924671,-2.705759 -6.67083,-3.75395 -9.90625,-3.5c-0.020828,0.00033 -0.041672,0.00033 -0.0625,0c-4.979099,0.27261 -9.90996,1.93989 -13.3125,3.125c-0.89006,0.314289 -1.877411,-0.054319 -2.34375,-0.875c-1.46682,-2.5406 -2.726931,-4.70965 -3.5625,-6.15625z"/>
   </g>
  </g>
 </g>
</svg>